<svg width="623" height="638" viewBox="0 0 623 638" fill="none" xmlns="http://www.w3.org/2000/svg">
<g clip-path="url(#clip0_7_404)">
<path d="M157.154 612.232C156.467 612.264 155.786 612.08 155.205 611.706C154.624 611.332 154.169 610.785 153.904 610.14C153.638 609.494 153.574 608.782 153.721 608.098C153.867 607.415 154.217 606.793 154.722 606.318C154.807 605.977 154.867 605.731 154.952 605.389C154.294 603.69 153.152 602.23 151.672 601.195C150.193 600.16 148.443 599.598 146.647 599.581C144.851 599.564 143.091 600.092 141.592 601.098C140.094 602.105 138.925 603.543 138.235 605.229C134.258 614.693 129.11 624.491 131.67 634.915C114.759 598.482 120.51 553.164 145.502 522.007C152.41 518.139 158.009 511.266 159.467 503.286C156.048 504.464 151.785 501.637 154.356 497.976C155.47 496.577 156.595 495.189 157.709 493.79C144.722 479.73 129.248 501.827 143.543 520.803C138.867 526.763 134.816 533.203 131.458 540.019C132.233 532.782 131.308 525.46 128.756 518.657C126.171 512.317 121.325 506.977 117.057 501.496C111.869 494.818 101.19 497.899 100.491 506.374C105.28 507.974 105.902 515.005 100.425 515.967C101.859 531.734 111.992 546.223 125.948 553.137C120.794 567.837 118.782 583.484 120.045 599.036C117.581 580.86 98.3878 576.45 84.9723 569.226C84.1185 568.669 83.1237 568.377 82.1094 568.385C81.0951 568.393 80.1051 568.702 79.2601 569.272C78.4152 569.842 77.7518 570.651 77.3509 571.598C76.9501 572.545 76.829 573.59 77.0026 574.606C78.8542 575.371 80.6265 576.322 82.2933 577.443C83.0743 577.977 83.6737 578.743 84.0095 579.637C84.3453 580.531 84.401 581.508 84.1689 582.435C83.9368 583.362 83.4283 584.194 82.713 584.816C81.9978 585.437 81.111 585.819 80.174 585.908C86.9362 602.921 104.419 614.345 122.376 614.281C124.101 621.903 126.601 629.323 129.836 636.42H156.487C156.582 636.119 156.668 635.808 156.754 635.507C154.287 635.665 151.811 635.515 149.38 635.06C155.906 627.205 160.954 623.198 157.155 612.232L157.154 612.232Z" fill="#F2F2F2"/>
<path d="M394.75 612.232C395.438 612.264 396.118 612.08 396.7 611.706C397.281 611.332 397.736 610.785 398.001 610.14C398.266 609.494 398.33 608.782 398.184 608.098C398.038 607.415 397.688 606.793 397.183 606.318C397.098 605.977 397.037 605.731 396.953 605.389C397.611 603.69 398.753 602.23 400.232 601.195C401.712 600.16 403.462 599.598 405.258 599.581C407.054 599.564 408.814 600.092 410.313 601.098C411.811 602.105 412.98 603.543 413.67 605.229C417.647 614.693 422.795 624.491 420.235 634.915C437.146 598.482 431.395 553.164 406.403 522.007C399.495 518.139 393.896 511.266 392.438 503.286C395.857 504.464 400.12 501.637 397.549 497.976C396.435 496.577 395.31 495.189 394.196 493.79C407.183 479.73 422.657 501.827 408.362 520.803C413.038 526.763 417.088 533.203 420.447 540.019C419.672 532.782 420.597 525.46 423.148 518.657C425.734 512.317 430.58 506.977 434.847 501.496C440.036 494.818 450.715 497.899 451.413 506.374C446.625 507.974 446.003 515.005 451.48 515.967C450.046 531.734 439.913 546.223 425.957 553.137C431.11 567.837 433.123 583.484 431.86 599.036C434.323 580.86 453.517 576.45 466.933 569.226C467.786 568.669 468.781 568.377 469.795 568.385C470.81 568.393 471.8 568.702 472.645 569.272C473.49 569.842 474.153 570.651 474.554 571.598C474.955 572.545 475.076 573.59 474.902 574.606C473.051 575.371 471.278 576.322 469.612 577.443C468.831 577.977 468.231 578.743 467.895 579.637C467.56 580.531 467.504 581.508 467.736 582.435C467.968 583.362 468.477 584.194 469.192 584.816C469.907 585.437 470.794 585.819 471.731 585.908C464.969 602.921 447.485 614.345 429.529 614.281C427.804 621.903 425.303 629.323 422.069 636.42H395.418C395.323 636.119 395.237 635.808 395.151 635.507C397.618 635.665 400.094 635.515 402.525 635.06C395.999 627.205 390.952 623.198 394.75 612.232Z" fill="#F2F2F2"/>
<path d="M404.632 616.255L393.155 618.908L377.621 575.17L394.56 571.253L404.632 616.255Z" fill="#FFB6B6"/>
<path d="M407.761 628.331L372.467 636.494L372.365 636.04C371.537 632.337 372.189 628.45 374.179 625.236C376.169 622.021 379.333 619.742 382.977 618.899L388.311 612.435L401.453 614.625L404.534 613.913L407.761 628.331Z" fill="#2F2E41"/>
<path d="M589.779 403.062L596.087 413.162L560.765 442.71L551.452 427.802L589.779 403.062Z" fill="#FFB6B6"/>
<path d="M599.921 396.014L619.325 427.074L618.939 427.323C615.785 429.359 611.964 430.039 608.318 429.211C604.671 428.384 601.497 426.118 599.493 422.912L591.714 419.972L589.335 406.652L587.641 403.941L599.921 396.014Z" fill="#2F2E41"/>
<path d="M223.925 295.075L221.091 278.373L264.187 258.591L273.495 241.841C273.194 240.371 273.299 238.845 273.798 237.432C274.297 236.019 275.17 234.774 276.322 233.834C277.473 232.893 278.858 232.295 280.323 232.105C281.788 231.914 283.276 232.139 284.623 232.755C285.97 233.37 287.124 234.352 287.956 235.592C288.789 236.832 289.268 238.282 289.341 239.781C289.414 241.281 289.078 242.772 288.369 244.089C287.661 245.406 286.608 246.499 285.328 247.247L270.017 271.308L223.925 295.075Z" fill="#A0616A"/>
<path d="M210.825 281.422L230.233 271.344L235.37 290.953L221.889 301.111L210.825 281.422Z" fill="#044F94"/>
<path d="M167.275 614.735L179.009 614.734L184.592 568.724L167.272 568.725L167.275 614.735Z" fill="#A0616A"/>
<path d="M182.914 615.809V607.722L179.829 607.914L167.271 608.67L164.365 608.851L162.143 635.935L162.024 637.387H170.356L170.624 635.945L171.834 629.391L174.959 635.945L175.643 637.387H197.734C199.048 637.379 200.307 636.843 201.235 635.897C202.164 634.952 202.688 633.672 202.694 632.335C203.626 627.909 185.255 618.34 182.914 615.809Z" fill="#2F2E41"/>
<path d="M27.9801 432.139L25.2446 443.74L67.9584 459.986L71.9952 442.866L27.9801 432.139Z" fill="#A0616A"/>
<path d="M24.2353 447.349L31.9714 449.235L32.5074 446.14L34.712 433.551L35.216 430.635L9.82493 422.124L8.46364 421.668L6.52087 429.904L7.8378 430.505L13.8255 433.23L6.8271 434.79L5.28813 435.131L0.137522 456.967C-0.160883 458.268 0.057789 459.637 0.746096 460.775C1.4344 461.914 2.53675 462.73 3.81374 463.048C7.83094 465.001 21.2683 449.073 24.2353 447.349Z" fill="#2F2E41"/>
<path d="M185.419 316.96L170.315 309.782L140.194 346.837L121.846 351.553C120.53 350.872 119.055 350.573 117.582 350.69C116.11 350.807 114.698 351.336 113.503 352.218C112.307 353.099 111.375 354.3 110.809 355.686C110.242 357.073 110.064 358.591 110.293 360.074C110.523 361.557 111.151 362.947 112.108 364.09C113.066 365.233 114.316 366.085 115.72 366.551C117.123 367.017 118.627 367.08 120.063 366.732C121.5 366.385 122.814 365.64 123.861 364.581L150.727 355.902L185.419 316.96Z" fill="#A0616A"/>
<path d="M399.558 179.79C396.357 179.79 393.227 178.825 390.565 177.017C387.903 175.209 385.828 172.639 384.603 169.632C383.377 166.625 383.057 163.316 383.681 160.124C384.306 156.932 385.848 154 388.112 151.699C390.376 149.398 393.26 147.831 396.4 147.196C399.54 146.561 402.795 146.887 405.753 148.132C408.711 149.377 411.239 151.487 413.018 154.193C414.797 156.899 415.746 160.08 415.746 163.335C415.741 167.697 414.034 171.88 411 174.965C407.965 178.05 403.85 179.785 399.558 179.79ZM399.558 148.768C396.724 148.768 393.953 149.622 391.597 151.223C389.24 152.823 387.403 155.098 386.319 157.76C385.234 160.422 384.95 163.351 385.503 166.177C386.056 169.002 387.421 171.598 389.425 173.635C391.429 175.672 393.983 177.06 396.763 177.622C399.542 178.184 402.424 177.895 405.042 176.793C407.661 175.69 409.899 173.823 411.473 171.428C413.048 169.032 413.889 166.216 413.889 163.335C413.884 159.473 412.373 155.77 409.687 153.039C407 150.308 403.358 148.772 399.558 148.768Z" fill="#E6E6E6"/>
<path d="M398.416 169.534C398.383 169.534 398.351 169.533 398.318 169.531C398.031 169.517 397.75 169.44 397.495 169.305C397.239 169.171 397.016 168.981 396.839 168.75L394.289 165.418C394.128 165.207 394.009 164.967 393.94 164.71C393.87 164.453 393.851 164.184 393.884 163.92C393.916 163.655 394 163.4 394.129 163.168C394.259 162.937 394.432 162.733 394.639 162.57L394.731 162.497C394.938 162.333 395.174 162.212 395.427 162.142C395.68 162.071 395.944 162.052 396.204 162.085C396.465 162.118 396.716 162.203 396.944 162.334C397.172 162.466 397.372 162.642 397.533 162.853C397.662 163.021 397.825 163.159 398.011 163.257C398.197 163.355 398.402 163.411 398.611 163.422C398.82 163.432 399.03 163.396 399.224 163.317C399.419 163.238 399.594 163.117 399.738 162.962L404.916 157.406C405.28 157.015 405.782 156.788 406.311 156.773C406.841 156.759 407.354 156.958 407.739 157.328L407.823 157.41C408.014 157.593 408.167 157.813 408.274 158.056C408.381 158.3 408.439 158.562 408.446 158.828C408.453 159.095 408.409 159.36 408.315 159.609C408.221 159.858 408.08 160.086 407.9 160.279L399.865 168.9C399.678 169.101 399.454 169.26 399.205 169.369C398.955 169.478 398.687 169.534 398.416 169.534Z" fill="#E6E6E6"/>
<path d="M318.747 379.017C315.546 379.017 312.416 378.052 309.754 376.244C307.092 374.436 305.017 371.866 303.791 368.859C302.566 365.852 302.246 362.544 302.87 359.352C303.495 356.159 305.037 353.227 307.301 350.926C309.565 348.625 312.449 347.058 315.589 346.423C318.729 345.788 321.984 346.114 324.942 347.359C327.9 348.605 330.428 350.714 332.207 353.42C333.986 356.126 334.935 359.307 334.935 362.562C334.93 366.925 333.223 371.107 330.189 374.192C327.154 377.277 323.039 379.012 318.747 379.017ZM318.747 347.995C315.913 347.995 313.142 348.849 310.786 350.45C308.429 352.05 306.592 354.326 305.508 356.987C304.423 359.649 304.139 362.578 304.692 365.404C305.245 368.229 306.61 370.825 308.614 372.862C310.618 374.899 313.172 376.287 315.952 376.849C318.731 377.411 321.613 377.122 324.231 376.02C326.85 374.917 329.088 373.05 330.662 370.655C332.237 368.259 333.077 365.443 333.077 362.562C333.073 358.7 331.562 354.997 328.875 352.266C326.189 349.535 322.546 347.999 318.747 347.995Z" fill="#E6E6E6"/>
<path d="M317.605 368.761C317.572 368.761 317.54 368.76 317.507 368.758C317.22 368.744 316.939 368.667 316.684 368.532C316.428 368.397 316.205 368.208 316.028 367.977L313.478 364.644C313.317 364.434 313.198 364.194 313.129 363.937C313.059 363.68 313.04 363.411 313.073 363.147C313.105 362.882 313.188 362.627 313.318 362.395C313.448 362.163 313.621 361.96 313.828 361.796L313.92 361.724C314.127 361.56 314.363 361.439 314.616 361.368C314.869 361.298 315.133 361.278 315.393 361.311C315.654 361.344 315.905 361.429 316.133 361.561C316.361 361.693 316.561 361.869 316.722 362.08C316.851 362.248 317.014 362.386 317.2 362.484C317.386 362.582 317.591 362.638 317.8 362.649C318.009 362.659 318.218 362.623 318.413 362.544C318.608 362.465 318.783 362.343 318.927 362.189L324.105 356.632C324.469 356.242 324.971 356.015 325.5 356C326.029 355.986 326.543 356.185 326.928 356.554L327.012 356.637C327.203 356.82 327.356 357.04 327.463 357.283C327.57 357.526 327.628 357.789 327.635 358.055C327.642 358.322 327.598 358.587 327.504 358.836C327.41 359.085 327.269 359.312 327.089 359.506L319.054 368.127C318.867 368.327 318.643 368.487 318.394 368.596C318.144 368.705 317.876 368.761 317.605 368.761Z" fill="#E6E6E6"/>
<path d="M141.334 157.129C138.133 157.129 135.003 156.164 132.341 154.356C129.679 152.548 127.604 149.978 126.379 146.971C125.154 143.964 124.833 140.656 125.458 137.464C126.082 134.272 127.624 131.339 129.888 129.038C132.152 126.737 135.036 125.17 138.176 124.535C141.317 123.9 144.571 124.226 147.529 125.471C150.487 126.717 153.016 128.826 154.794 131.532C156.573 134.238 157.522 137.419 157.522 140.674C157.518 145.037 155.811 149.219 152.776 152.304C149.741 155.389 145.626 157.124 141.334 157.129ZM141.334 126.107C138.5 126.107 135.73 126.961 133.373 128.562C131.016 130.163 129.18 132.438 128.095 135.099C127.01 137.761 126.727 140.69 127.28 143.516C127.833 146.341 129.197 148.937 131.201 150.974C133.206 153.011 135.759 154.399 138.539 154.961C141.319 155.523 144.2 155.234 146.818 154.132C149.437 153.029 151.675 151.162 153.25 148.767C154.824 146.371 155.665 143.555 155.665 140.674C155.66 136.812 154.149 133.109 151.463 130.378C148.776 127.647 145.134 126.111 141.334 126.107Z" fill="#E6E6E6"/>
<path d="M140.192 146.873C140.16 146.873 140.127 146.872 140.094 146.871C139.807 146.856 139.526 146.779 139.271 146.644C139.015 146.51 138.792 146.32 138.615 146.089L136.065 142.757C135.904 142.546 135.785 142.306 135.716 142.049C135.646 141.792 135.627 141.523 135.66 141.259C135.692 140.995 135.776 140.739 135.905 140.507C136.035 140.276 136.208 140.072 136.415 139.909L136.507 139.836C136.714 139.672 136.951 139.552 137.203 139.481C137.456 139.41 137.72 139.391 137.981 139.424C138.241 139.457 138.492 139.542 138.72 139.673C138.948 139.805 139.148 139.981 139.309 140.192C139.438 140.36 139.601 140.498 139.787 140.596C139.973 140.694 140.178 140.751 140.387 140.761C140.597 140.771 140.806 140.736 141 140.656C141.195 140.577 141.37 140.456 141.514 140.301L146.692 134.745C147.057 134.355 147.558 134.127 148.088 134.113C148.617 134.098 149.13 134.297 149.515 134.667L149.6 134.749C149.79 134.932 149.943 135.152 150.05 135.395C150.157 135.639 150.215 135.901 150.223 136.168C150.23 136.434 150.185 136.699 150.091 136.948C149.997 137.197 149.856 137.425 149.676 137.618L141.641 146.239C141.454 146.44 141.23 146.599 140.981 146.708C140.732 146.817 140.463 146.873 140.192 146.873Z" fill="#E6E6E6"/>
<path d="M270.935 440.2C233.397 440.2 190.257 397.856 152.088 417.975C36.5239 478.889 52.432 376.959 19.2313 339.05L20.3212 336.827C56.9544 370.217 102.692 397.384 152.59 415.39C197.682 431.663 243.113 439.202 283.953 437.213L284.024 439.884C279.711 440.095 275.348 440.201 270.935 440.2Z" fill="#F2F2F2"/>
<path d="M219.443 153.908C223.776 153.908 227.289 149.12 227.289 143.213C227.289 137.306 223.776 132.517 219.443 132.517C215.109 132.517 211.596 137.306 211.596 143.213C211.596 149.12 215.109 153.908 219.443 153.908Z" fill="#E6E6E6"/>
<path d="M310.069 320.759C306.482 323.188 302.81 317.405 306.466 315.084C310.054 312.654 313.725 318.437 310.069 320.759Z" fill="#E6E6E6"/>
<path d="M289.421 126.08C295.064 126.08 299.638 121.43 299.638 115.693C299.638 109.957 295.064 105.307 289.421 105.307C283.778 105.307 279.203 109.957 279.203 115.693C279.203 121.43 283.778 126.08 289.421 126.08Z" fill="#FF6584"/>
<path opacity="0.3" d="M325.158 172.609L383.298 0L319.457 170.543C319.141 170.948 318.925 171.423 318.826 171.93C318.727 172.437 318.748 172.96 318.888 173.457C319.028 173.953 319.283 174.409 319.63 174.785C319.978 175.162 320.409 175.449 320.888 175.623C321.367 175.796 321.879 175.851 322.383 175.783C322.887 175.715 323.367 175.526 323.785 175.231C324.202 174.936 324.544 174.545 324.783 174.089C325.022 173.633 325.151 173.126 325.158 172.609Z" fill="#F0F0F0"/>
<path d="M266.472 382.897C271.963 382.897 276.413 378.373 276.413 372.792C276.413 367.211 271.963 362.687 266.472 362.687C260.982 362.687 256.531 367.211 256.531 372.792C256.531 378.373 260.982 382.897 266.472 382.897Z" fill="#F2F2F2"/>
<path d="M170.191 376.646C170.191 376.646 145.409 393.05 151.962 403.951C152.188 404.327 122.359 444.373 122.359 444.373L66.0496 440.739L64.0657 459.897L114.196 474.656C114.196 474.656 126.46 483.815 135.934 473.724C145.409 463.633 176.966 432.731 176.966 432.731L178.488 495.121L162.647 581.575L186.3 580.05L209.322 493.315L217.82 395.067L170.191 376.646Z" fill="#2F2E41"/>
<path d="M187.844 278.195L177.422 286.224L165.544 311.994L176.966 327.763C176.966 327.763 186.574 344.69 171.195 361.082C155.816 377.474 144.007 394.982 156.316 394.357C168.625 393.731 218.48 419.507 218.808 398.39C219.136 377.272 219.8 361.082 219.8 361.082L232.871 327.382C232.871 327.382 240.658 307.279 235.191 301.261C229.723 295.243 222.403 287.553 222.403 287.553L209.091 274.021H197.07L187.844 278.195Z" fill="#044F94"/>
<path d="M207.298 228.68C230.678 242.204 211.485 277.886 187.669 265.18C164.29 251.657 183.483 215.974 207.298 228.68Z" fill="#A0616A"/>
<path d="M219.8 236.179C218.162 238.344 214.739 237.329 208.037 238.874C208.052 236.565 207.789 234.262 207.255 232.018C206.757 234.797 205.664 237.431 204.054 239.734C198.234 240.39 205.368 258.363 202.388 271.577C198.549 243.7 190.473 251.003 194.553 256.533C197.165 260.073 195.424 270.692 187.588 265.383C174.661 271.628 156.247 240.603 176.655 226.053C176.29 218.189 184.899 216.946 190.2 219.364C203.066 209.622 217.764 222.105 219.8 236.179Z" fill="#2F2E41"/>
<path d="M159.813 215.837C154.607 248.369 126.708 209.854 113.59 241.868C109.465 253.462 116.542 261.756 121.018 271.38C122.04 279.288 111.918 283.301 110.858 290.581C110.563 307.271 137.052 306.25 144.457 295.72C152.066 284.697 142.98 269.907 147.553 258.076C153.981 241.649 180.123 241.527 182.4 222.416C177.989 216.031 166.13 208.719 159.813 215.837Z" fill="#2F2E41"/>
<path d="M180.899 219.016C180.729 219.088 180.558 219.161 180.406 219.243H180.397C180.254 219.316 180.11 219.389 179.967 219.471C179.949 219.48 179.94 219.489 179.922 219.498C179.734 219.316 179.546 219.134 179.348 218.952C179.297 219.249 179.31 219.553 179.384 219.845L179.411 219.954C179.591 220.145 179.779 220.327 179.976 220.519C180.155 220.382 180.325 220.236 180.505 220.1C180.612 220.009 180.72 219.917 180.836 219.826C180.854 219.589 180.881 219.316 180.908 219.015L180.899 219.016ZM186.294 208.885C182.297 207.955 181.006 213.267 180.621 215.827C179.169 206.534 173.129 209.459 175.217 215.799C175.882 217.677 176.93 219.39 178.291 220.828C178.479 221.047 178.685 221.266 178.9 221.484C178.658 222.76 179.877 222.432 181.526 221.257C182.744 220.376 183.87 219.372 184.887 218.259C188.176 214.752 190.74 210.06 186.294 208.885ZM186.42 214.114C185.187 215.731 183.803 217.222 182.288 218.569C181.813 219.006 181.329 219.425 180.836 219.826C180.827 219.908 180.827 219.981 180.818 220.045C180.784 220.133 180.742 220.219 180.693 220.3C180.191 221.22 179.626 220.719 179.411 219.954C179.393 219.927 179.366 219.899 179.348 219.872C178.632 219.12 178.009 218.281 177.493 217.376C173.792 210.853 179.752 206.416 179.456 218.596C179.402 218.708 179.365 218.828 179.348 218.952C179.297 219.249 179.31 219.553 179.384 219.845L179.411 219.954C179.591 220.145 179.779 220.327 179.976 220.519C180.155 220.382 180.325 220.236 180.505 220.1C180.612 220.009 180.72 219.917 180.836 219.826C180.854 219.589 180.881 219.316 180.908 219.015V219.006C181.141 216.565 181.777 212.174 182.951 210.98C185.533 208.967 188.876 211.144 186.42 214.114ZM180.899 219.016C180.729 219.088 180.558 219.161 180.406 219.243H180.397C180.254 219.316 180.11 219.389 179.967 219.471C179.949 219.48 179.94 219.489 179.922 219.498C179.734 219.316 179.546 219.134 179.348 218.952C179.297 219.249 179.31 219.553 179.384 219.845L179.411 219.954C179.591 220.145 179.779 220.327 179.976 220.519C180.155 220.382 180.325 220.236 180.505 220.1C180.612 220.009 180.72 219.917 180.836 219.826C180.854 219.589 180.881 219.316 180.908 219.015L180.899 219.016Z" fill="#2F2E41"/>
<path d="M396.993 398.376L388.358 421.267L347.852 502.487L383.444 596.971L401.813 592.042L386.673 502.487L430.11 448.838L481.695 484.403C481.695 484.403 504.573 502.558 513.277 485.347C521.98 468.136 578.297 431.527 578.297 431.527L564.364 416.42L499.512 447.271L454.751 383.228L396.993 398.376Z" fill="#2F2E41"/>
<path d="M440.562 290.402L426.348 274.879L401.966 271.469L372.09 292.729L372.391 316.262L387.159 371.714C387.159 371.714 381.534 411.554 397.247 411.154C412.96 410.755 421.524 402.792 427.924 404.413C434.323 406.034 461.528 412.933 463.252 405.706C464.976 398.48 474.14 403.654 473.738 396.818C473.336 389.982 448.929 340.707 448.929 340.707L454.997 291.428L440.562 290.402Z" fill="#044F94"/>
<path d="M530.561 218.945C530.688 220.232 530.536 221.532 530.115 222.753C529.695 223.974 529.016 225.087 528.127 226.013C527.237 226.938 526.159 227.655 524.968 228.111C523.777 228.567 522.502 228.752 521.233 228.654L488.546 291.846L479.77 278.151L513.181 218.512C513.485 216.355 514.557 214.388 516.194 212.981C517.83 211.575 519.918 210.827 522.06 210.881C524.202 210.934 526.251 211.785 527.818 213.271C529.384 214.757 530.36 216.776 530.561 218.945Z" fill="#FFB6B6"/>
<path d="M427.658 302.152C427.658 302.152 426.361 313.393 438.81 316.175C451.259 318.958 485.748 298.926 491.402 295.866C493.172 294.908 495.575 290.212 498.04 284.212C499.146 281.519 500.266 278.563 501.346 275.565C501.971 273.83 504.965 273.356 505.554 271.635C506.14 269.924 504.321 266.965 504.852 265.353C507.37 257.697 509.155 251.624 509.155 251.624L500.904 235.869C489.365 242.071 483.446 255.73 479.093 271.467L427.658 302.152Z" fill="#044F94"/>
<path d="M282.272 233.456C282.466 234.735 282.933 235.955 283.641 237.03C284.349 238.106 285.28 239.01 286.369 239.68C287.458 240.35 288.678 240.769 289.943 240.908C291.209 241.047 292.489 240.902 293.693 240.483L340.898 293.349L346.023 277.858L298.993 228.616C298.167 226.606 296.644 224.973 294.714 224.028C292.783 223.082 290.578 222.89 288.517 223.487C286.456 224.083 284.682 225.428 283.531 227.265C282.38 229.103 281.932 231.305 282.272 233.456Z" fill="#FFB6B6"/>
<path d="M402.386 287.838C402.386 287.838 406.408 298.391 395.041 304.253C383.673 310.114 345.35 299.492 339.123 297.968C337.173 297.491 333.69 293.555 329.827 288.374C328.092 286.048 326.281 283.471 324.497 280.843C323.464 279.322 320.449 279.625 319.455 278.109C318.467 276.601 319.499 273.274 318.588 271.848C314.265 265.076 311.042 259.65 311.042 259.65L315.152 242.298C327.851 245.367 336.944 257.086 345.033 271.215L402.386 287.838Z" fill="#044F94"/>
<path d="M414.643 267.52C427.456 267.52 437.843 256.962 437.843 243.938C437.843 230.913 427.456 220.355 414.643 220.355C401.831 220.355 391.444 230.913 391.444 243.938C391.444 256.962 401.831 267.52 414.643 267.52Z" fill="#FFB6B6"/>
<path d="M441.126 230.435C438.685 226.597 434.106 224.039 429.666 224.758C429.253 221.878 428.071 219.168 426.247 216.924C424.424 214.68 422.03 212.988 419.326 212.031C416.622 211.074 413.712 210.889 410.912 211.498C408.112 212.106 405.53 213.483 403.446 215.48C402.761 214.989 401.963 214.687 401.13 214.602C400.296 214.518 399.455 214.653 398.688 214.996C397.16 215.702 395.83 216.786 394.822 218.15C392.274 221.379 390.636 225.25 390.081 229.351C389.526 233.452 390.076 237.629 391.671 241.437C391.128 239.432 393.105 237.546 395.102 237.096C397.099 236.646 399.194 237.072 401.219 236.779C403.815 236.403 406.148 234.873 408.748 234.528C410.953 234.382 413.164 234.671 415.261 235.379C417.358 236.086 419.566 236.388 421.772 236.268C423.96 236.003 426.779 244.433 426.741 250.37C426.734 251.495 426.962 252.94 428.043 253.178C429.375 253.473 430.147 251.604 431.415 251.094C432 250.924 432.626 250.991 433.163 251.281C433.699 251.571 434.104 252.062 434.292 252.65C434.452 253.247 434.469 253.875 434.342 254.48C434.215 255.086 433.948 255.652 433.562 256.131C432.783 257.081 431.858 257.897 430.822 258.547L431.344 258.988C431.84 259.521 432.503 259.861 433.218 259.952C433.934 260.042 434.658 259.877 435.267 259.484C436.464 258.659 437.434 257.537 438.083 256.224C440.53 252.377 442.28 248.116 443.249 243.642C444.066 239.149 443.566 234.272 441.126 230.435Z" fill="#2F2E41"/>
<path d="M612.754 323.445C582.83 346.484 523.29 339.206 504.813 378.669C448.869 498.153 401.009 407.135 352.026 397.292L351.575 394.852C400.61 398.986 453.206 392.571 503.677 376.3C549.289 361.598 589.982 339.726 621.357 313.075L623 315.161C619.687 317.976 616.272 320.738 612.754 323.445Z" fill="#F2F2F2"/>
<path d="M486.237 636.39C485.525 638.536 78.6142 638.536 77.8452 636.395C78.557 634.244 485.467 634.244 486.237 636.39Z" fill="#CCCCCC"/>
</g>
<defs>
<clipPath id="clip0_7_404">
<rect width="623" height="638" fill="white"/>
</clipPath>
</defs>
</svg>
