<svg width="595" height="366" viewBox="0 0 595 366" fill="none" xmlns="http://www.w3.org/2000/svg">
<g clip-path="url(#clip0_5_168)">
<path d="M548.975 176.732H66.4956C60.0285 176.732 54.7671 171.79 54.7671 165.716V11.0161C54.7671 4.94179 60.0285 0 66.4956 0H548.975C555.442 0 560.703 4.94179 560.703 11.0161V165.716C560.703 171.79 555.442 176.732 548.975 176.732ZM66.4956 1.31337C60.7996 1.31337 56.1654 5.66613 56.1654 11.0161V165.716C56.1654 171.066 60.7996 175.419 66.4956 175.419H548.975C554.671 175.419 559.305 171.066 559.305 165.716V11.0161C559.305 5.66613 554.671 1.31337 548.975 1.31337H66.4956Z" fill="#3F3D56"/>
<path d="M595 361.541H0V362.646H595V361.541Z" fill="#E6E6E6"/>
<path d="M595 305.067H0V306.172H595V305.067Z" fill="#E6E6E6"/>
<path d="M271.158 182.421C271.585 187.465 274.702 191.346 278.119 191.09C281.536 190.834 283.959 186.538 283.531 181.493C283.39 179.476 282.736 177.52 281.624 175.788L279.526 154.441L268.882 155.579L272.08 176.503C271.274 178.378 270.958 180.408 271.158 182.421Z" fill="#FFB6B6"/>
<path d="M258.442 82.8296C258.442 82.8296 268.393 77.8821 273.438 85.2754C278.483 92.6687 281.966 172.628 281.966 172.628L267.981 174.03L265.33 117.685L258.442 82.8296Z" fill="#E6E6E6"/>
<path d="M237.79 300.895L245.892 300.894L249.746 271.544L237.789 271.545L237.79 300.895Z" fill="#FFB6B6"/>
<path d="M265.547 300.722C265.799 301.121 265.932 302.409 265.932 302.873C265.932 304.3 264.701 305.456 263.182 305.456H238.093C237.058 305.456 236.218 304.667 236.218 303.694V302.713C236.218 302.713 234.977 299.764 237.532 296.13C237.532 296.13 240.708 298.976 245.453 294.518L246.853 292.137L256.982 299.096L262.597 299.745C263.825 299.887 264.915 299.723 265.547 300.722Z" fill="#2F2E41"/>
<path d="M284.672 299.635L292.521 297.751L288.521 268.418L276.936 271.199L284.672 299.635Z" fill="#FFB6B6"/>
<path d="M311.519 293.015C311.868 293.343 312.336 294.56 312.459 295.01C312.835 296.392 311.947 297.798 310.475 298.151L286.167 303.984C285.163 304.224 284.142 303.655 283.885 302.713L283.627 301.762C283.627 301.762 281.647 299.194 283.165 295.078C283.165 295.078 286.992 297.097 290.416 291.676L291.144 289.043L302.792 293.43L308.403 292.754C309.631 292.606 310.643 292.194 311.519 293.015Z" fill="#2F2E41"/>
<path d="M231.088 76.5202L230.704 73.902L235.269 63.4292L247.813 62.1201L250.522 77.1132L231.088 76.5202Z" fill="#FFB6B6"/>
<path opacity="0.1" d="M231.088 76.5202L230.704 73.902L235.269 63.4292L247.813 62.1201L250.522 77.1132L231.088 76.5202Z" fill="black"/>
<path d="M216.454 150.484L210.879 164.884L215.06 172.739L235.966 286.63H249.865L247.116 185.83L279.172 286.63H292.929L281.867 218.557L273.597 155.72L268.582 152.81L244.329 140.011L216.454 150.484Z" fill="#2F2E41"/>
<path d="M251.994 160.302L243.632 161.611L232.482 136.738H257.569L251.994 160.302Z" fill="#E6E6E6"/>
<path d="M268.719 153.757L251.994 160.302L246.419 148.52L243.632 161.611L214.363 152.762L218.544 136.738L214.363 84.3746L229.123 75.1323L231.088 73.9019L249.207 75.211L250.796 76.0226L261.751 81.7564L264.538 124.957L268.719 153.757Z" fill="#2F2E41"/>
<path d="M250.796 76.0226L242.935 107.284L229.123 75.1323L231.088 73.9019L249.207 75.211L250.796 76.0226Z" fill="#E6E6E6"/>
<path d="M237.36 73.9019L234.572 78.411L237.36 79.914L235.966 107.365L241.541 114.484L247.116 103.963L242.935 79.914L244.329 73.9019H237.36Z" fill="#2F2E41"/>
<path d="M241.541 71.2837C248.854 71.2837 254.782 65.7157 254.782 58.8473C254.782 51.9789 248.854 46.4109 241.541 46.4109C234.229 46.4109 228.301 51.9789 228.301 58.8473C228.301 65.7157 234.229 71.2837 241.541 71.2837Z" fill="#FFB6B6"/>
<path d="M233.079 59.9382L235.94 61.111L237.189 54.0746C237.189 54.0746 242.183 51.7291 245.929 52.9019C249.675 54.0746 255.917 52.9019 255.917 52.9019C255.917 52.9019 255.917 41.1746 247.178 41.1746C238.438 41.1746 229.698 42.3473 229.698 45.8655C229.698 49.3837 225.952 52.9019 225.952 52.9019C225.952 52.9019 220.958 59.9382 225.952 64.6292C230.946 69.3201 233.443 69.3201 233.443 69.3201L233.079 59.9382Z" fill="#2F2E41"/>
<path d="M207.388 182.054C207.243 187.111 209.903 191.281 213.33 191.367C216.757 191.453 219.651 187.424 219.796 182.365C219.883 180.344 219.454 178.334 218.544 176.501L218.871 155.066L208.158 155.136L208.973 176.26C207.96 178.045 207.416 180.031 207.388 182.054Z" fill="#FFB6B6"/>
<path d="M220.642 81.7319C220.642 81.7319 211.582 79.1137 207.401 86.9683C203.22 94.8228 208.795 174.678 208.795 174.678H222.859L219.126 118.387L220.642 81.7319Z" fill="#E6E6E6"/>
<path d="M568.169 230.501L534.385 220.787C533.638 220.572 532.853 220.494 532.075 220.556L360.852 234.243C358.41 234.438 357.797 237.531 359.999 238.539L365.484 241.049H365.338V361.19H370.506V243.347L387.695 251.212C389.01 251.814 390.478 252.06 391.934 251.922L393.762 251.748V361.19H398.931V251.258L531.363 238.693V361.19H536.531V238.203L558.496 236.119V361.19H563.664V235.629L567.671 235.248C570.484 234.982 570.872 231.278 568.169 230.501Z" fill="#3F3D56"/>
<path d="M410.559 233.767C413.789 233.767 461.594 228.306 461.594 228.306L468.7 237.408L418.957 246.51L410.559 233.767Z" fill="white"/>
<path d="M463.025 356.524L454.72 356.51L450.824 326.414L463.082 326.434L463.025 356.524Z" fill="#A0616A"/>
<path d="M434.57 356.301C434.311 356.71 434.172 358.03 434.171 358.506C434.168 359.968 435.428 361.155 436.985 361.158L462.706 361.199C463.768 361.201 464.631 360.394 464.632 359.396L464.634 358.39C464.634 358.39 465.912 355.369 463.299 351.639C463.299 351.639 460.038 354.552 455.181 349.974L453.751 347.531L443.353 354.648L437.596 355.304C436.336 355.447 435.22 355.277 434.57 356.301Z" fill="#2F2E41"/>
<path d="M507.602 342.529L501.049 347.171L478.865 325.64L488.537 318.789L507.602 342.529Z" fill="#A0616A"/>
<path d="M485.04 358.296C485.095 358.763 485.824 359.881 486.125 360.256C487.052 361.41 488.799 361.64 490.027 360.77L510.319 346.391C511.157 345.798 511.324 344.678 510.692 343.891L510.055 343.098C510.055 343.098 509.143 340.001 504.715 338.526C504.715 338.526 503.995 342.648 497.262 341.763L494.583 340.639L490.91 352.072L486.79 355.815C485.889 356.634 484.902 357.125 485.04 358.296Z" fill="#2F2E41"/>
<path d="M490.244 186.984C490.244 194.178 484.035 200.009 476.376 200.009C468.717 200.009 462.508 194.178 462.508 186.984C462.508 179.79 468.717 173.958 476.376 173.958C484.035 173.958 490.244 179.79 490.244 186.984Z" fill="#A0616A"/>
<path d="M488.937 262.086C488.937 262.086 437.877 259.372 434.987 264.801C432.097 270.23 450.612 344.807 450.612 344.807L467.13 341.555L459.072 289.233C459.072 289.233 501.68 299.832 507.461 287.163C513.241 274.495 511.577 269.778 511.577 269.778L488.937 262.086Z" fill="#2F2E41"/>
<path d="M502.019 252.973C502.019 252.973 452.013 263.042 450.755 268.996C449.497 274.95 488.356 342.269 488.356 342.269L503.371 335.029L480.863 286.573C480.863 286.573 524.939 286.208 526.946 272.554C528.952 258.901 526.019 254.765 526.019 254.765L502.019 252.973Z" fill="#2F2E41"/>
<path d="M507.723 201.912H483.699L467.261 227.248C467.261 227.248 463.407 243.622 467.261 245.389C471.114 247.156 471.114 266.158 471.114 266.158L511.577 269.778C511.577 269.778 517.357 212.77 515.431 207.341C513.504 201.912 507.723 201.912 507.723 201.912Z" fill="#044F94"/>
<path d="M469.669 218.652L467.261 245.389L440.17 234.59L433.705 231.536C432.438 229.985 430.795 228.741 428.912 227.909C424.23 225.766 419.259 226.296 417.807 229.094C416.355 231.892 418.972 235.897 423.654 238.039C425.512 238.92 427.568 239.369 429.65 239.35L448.567 249.442L448.59 249.403L448.673 249.543L478.34 261.182L485.166 226.082L469.669 218.652Z" fill="#A0616A"/>
<path d="M466.779 188.791C466.779 188.791 452.328 190.601 458.108 178.837C458.108 178.837 457.227 172.46 461.521 172.029C465.816 171.598 471.596 164.359 471.596 164.359C471.596 164.359 484.848 158.025 491.71 164.359C498.571 170.693 518.803 207.793 518.803 207.793L505.315 221.367C505.315 221.367 497.206 201.345 487.773 203.665C478.34 205.984 469.669 212.899 469.669 212.899C469.669 212.899 460.096 208.399 464.401 204.477C468.706 200.554 466.779 188.791 466.779 188.791Z" fill="#2F2E41"/>
<path d="M486.047 208.698C486.047 208.698 479.303 200.554 474.486 206.889C469.669 213.223 465.816 221.367 465.816 221.367L485.084 227.701L486.047 208.698Z" fill="#044F94"/>
<path d="M559.205 359.389L536.819 292.558L536.822 292.558H536.874L536.783 292.448L536.781 292.446L535.187 287.686L535.188 287.685C537.617 285.719 539.27 282.91 539.6 279.676L529.367 226.814C530.071 219.872 524.406 213.804 516.983 213.556L493.894 213.501C487.331 213.283 481.646 217.736 480.69 223.841L480.18 227.081L473.106 272.279C472.847 273.905 472.951 275.507 473.358 277.006L468.267 277.631L466.723 277.825L460.618 278.572L460.599 278.578L459.837 278.669H459.01V298.085H459.061V360.146C459.061 360.547 459.41 360.874 459.837 360.874C460.269 360.874 460.618 360.547 460.618 360.146V298.085H469.675L478.713 360.073C478.771 360.437 479.101 360.704 479.488 360.704C479.521 360.704 479.559 360.704 479.592 360.698C480.018 360.644 480.315 360.274 480.257 359.873L471.252 298.085H514.709C519.024 298.085 523.022 296.799 526.278 294.597L543.508 359.96C543.598 360.29 543.914 360.51 544.262 360.51C544.325 360.51 544.39 360.503 544.454 360.488C544.871 360.388 545.122 359.99 545.017 359.599L527.62 293.604C527.851 293.423 528.083 293.23 528.301 293.031L535.218 292.649L557.72 359.828C557.825 360.139 558.132 360.339 558.462 360.339C558.54 360.339 558.618 360.328 558.696 360.305C559.106 360.184 559.334 359.774 559.205 359.389ZM533.708 288.723C533.766 288.693 533.818 288.656 533.87 288.626L534.036 289.122L533.708 288.723Z" fill="#E6E6E6"/>
<path d="M119.95 246.108L135.016 237.109L141.141 240.579L119.95 263.45V246.108Z" fill="#FFB6B6"/>
<path d="M99.3473 211.276C99.3473 211.276 89.3404 213.488 94.0495 226.204C98.7587 238.921 114.063 265.459 118.772 263.8C123.482 262.142 124.07 245.555 124.07 245.555C124.07 245.555 123.482 246.108 121.127 243.897C118.772 241.685 118.772 242.695 118.772 240.255C118.772 237.815 116.847 236.006 116.847 236.006L114.652 231.733C114.652 231.733 114.652 211.829 105.822 210.723C96.9927 209.617 99.3473 211.276 99.3473 211.276Z" fill="#E6E6E6"/>
<path d="M146.1 239.985C150.008 236.314 151.219 231.501 148.805 229.233C146.392 226.966 141.267 228.104 137.359 231.775C133.451 235.445 132.24 240.259 134.654 242.526C137.067 244.793 142.192 243.655 146.1 239.985Z" fill="#FFB6B6"/>
<path d="M60.3702 284.534L70.6505 300.516L130.56 297.186L114.608 277.875L60.3702 284.534Z" fill="#E6E6E6"/>
<path d="M78.2713 359.284C77.9224 359.284 77.6184 359.042 77.5698 358.708L59.6678 235.904C59.6146 235.54 59.886 235.204 60.2739 235.154C60.6617 235.101 61.0193 235.359 61.0726 235.723L78.9746 358.528C79.0277 358.892 78.7563 359.228 78.3684 359.278C78.3357 359.282 78.3033 359.284 78.2713 359.284Z" fill="#E6E6E6"/>
<path d="M60.3702 359.44C59.9786 359.44 59.6612 359.142 59.6612 358.774V235.838C59.6612 235.47 59.9786 235.172 60.3702 235.172C60.7617 235.172 61.0792 235.47 61.0792 235.838V358.774C61.0792 359.142 60.7617 359.44 60.3702 359.44Z" fill="#E6E6E6"/>
<path d="M150.234 358.951C149.933 358.951 149.654 358.769 149.558 358.485L107.196 232.018C107.079 231.667 107.286 231.293 107.66 231.183C108.033 231.073 108.431 231.268 108.549 231.618L150.911 358.085C151.028 358.436 150.821 358.81 150.447 358.921C150.377 358.941 150.305 358.951 150.234 358.951Z" fill="#E6E6E6"/>
<path d="M137.295 359.107C136.978 359.107 136.69 358.907 136.608 358.605L107.185 246.989C107.089 246.633 107.318 246.271 107.698 246.18C108.078 246.09 108.463 246.305 108.56 246.661L137.983 358.277C138.079 358.633 137.85 358.996 137.47 359.087C137.412 359.101 137.353 359.107 137.295 359.107Z" fill="#E6E6E6"/>
<path d="M60.3702 237.796L109.468 237.087L118.507 285.533H61.0792L60.3702 237.796Z" fill="#E6E6E6"/>
<path d="M135.821 309.032L123.447 329.494L137.814 332.464L143.804 317.912L135.821 309.032Z" fill="#FFB6B6"/>
<path d="M127.892 325.631C127.892 325.631 127.411 322.294 124.584 323.353C121.758 324.412 113.6 328.347 113.6 328.347C113.6 328.347 134.877 360.82 138.915 359.308C142.954 357.795 138.12 348.616 138.12 348.616L139.186 332.39L127.892 325.631Z" fill="#2F2E41"/>
<path d="M81.0994 269.329C81.0994 269.329 76.6846 288.404 90.2234 295.039C103.762 301.673 149.971 285.363 149.971 285.363L128.779 315.186L143.495 320.748C143.495 320.748 177.048 279.281 174.693 272.647C172.339 266.012 156.446 265.459 156.446 265.459L120.538 267.118L111.12 264.353L81.0994 269.329Z" fill="#2F2E41"/>
<path d="M117.515 318.114L98.0633 332.943L110.294 340.62L121.511 329.112L117.515 318.114Z" fill="#FFB6B6"/>
<path d="M103.699 330.864C103.699 330.864 104.544 327.592 101.501 327.612C98.4581 327.632 89.3349 328.509 89.3349 328.509C89.3349 328.509 96.5732 366.029 100.92 366C105.268 365.971 104.321 355.769 104.321 355.769L111.601 341.02L103.699 330.864Z" fill="#2F2E41"/>
<path d="M81.927 262.43C81.927 262.43 70.4251 278.688 80.4653 289.495C90.5056 300.302 139.865 300.903 139.865 300.903L108.573 321.439L120.125 331.649C120.125 331.649 167.442 304.493 167.82 297.508C168.197 290.524 153.607 284.577 153.607 284.577L119.519 273.849L111.817 268.055L81.927 262.43Z" fill="#2F2E41"/>
<path d="M111.475 224.772C111.475 224.772 100.291 220.902 94.9927 220.902C94.4865 220.902 93.9862 220.957 93.4858 221.057C90.0952 221.731 86.9754 224.468 85.4803 225.961C84.8975 226.547 84.562 226.939 84.562 226.939C84.562 226.939 84.5973 226.558 84.668 225.889C85.0153 222.373 86.2985 210.834 88.6001 203.447C89.4242 200.81 90.3719 198.703 91.4609 197.681C93.9979 195.292 95.1693 192.428 95.7109 190.294C96.17 188.464 96.17 187.176 96.17 187.176L91.8788 185.44L91.0841 180.563C90.9429 181.138 90.2895 182.261 88.0939 184.411C87.9055 184.594 87.6995 184.749 87.4817 184.881C84.3148 186.75 77.8574 183.499 74.3785 181.453C75.8266 176.726 78.4519 172.403 83.2199 171.695C94.4041 170.036 94.4041 163.955 101.468 170.589C102.051 171.137 102.639 171.662 103.228 172.17C105.488 176.229 106.312 181.669 106.607 185.451C106.819 188.099 106.766 189.94 106.766 189.94C106.766 189.94 109.709 206.527 114.418 209.844C119.127 213.162 111.475 224.772 111.475 224.772Z" fill="#2F2E41"/>
<path d="M89.6949 198.234L81.7413 209.191L99.7019 213.714V198.234H89.6949Z" fill="#FFB6B6"/>
<path opacity="0.1" d="M89.6949 198.234L81.7413 209.191L99.7019 213.714V198.234H89.6949Z" fill="black"/>
<path d="M100.819 208.788L83.7483 202.153C83.7483 202.153 60.7912 211.553 62.5572 229.798C64.3231 248.043 80.8051 279.558 80.8051 279.558L113.769 266.288L110.237 230.904L100.819 208.788Z" fill="#E6E6E6"/>
<path d="M93.4997 203.126C101.817 203.126 108.56 196.793 108.56 188.98C108.56 181.168 101.817 174.834 93.4997 174.834C85.1821 174.834 78.4393 181.168 78.4393 188.98C78.4393 196.793 85.1821 203.126 93.4997 203.126Z" fill="#FFB6B6"/>
<path d="M113.829 183.858C110.886 186.623 108.532 189.387 108.532 189.387L107.354 184.964C107.354 184.964 107.083 185.152 106.607 185.451C104.741 186.645 99.7313 189.647 95.7109 190.294C93.9214 190.582 92.3321 190.399 91.2961 189.387C89.1004 187.237 88.447 186.114 88.3058 185.539L87.5111 190.416L83.2199 192.152C83.2199 192.152 83.2199 198.222 87.929 202.657C88.1586 202.872 88.3823 203.138 88.6001 203.447C90.8487 206.632 92.4616 214.428 93.4858 221.057C94.3923 226.95 94.8279 231.915 94.8279 231.915C94.8279 231.915 90.3719 226.674 85.4803 225.961C85.2095 225.922 84.9387 225.894 84.668 225.889C84.5797 225.878 84.4855 225.878 84.3972 225.878C79.0994 225.878 67.9152 229.748 67.9152 229.748C67.9152 229.748 60.2629 218.137 64.972 214.82C69.6811 211.503 72.6243 194.916 72.6243 194.916C72.6243 194.916 72.4301 187.817 74.3785 181.453C75.8266 176.726 78.4519 172.403 83.2199 171.695C94.4041 170.036 94.4041 163.955 101.468 170.589C102.051 171.137 102.639 171.662 103.228 172.17C109.809 177.854 116.531 181.321 113.829 183.858Z" fill="#2F2E41"/>
<path d="M47.7756 258.076H42.1824V361.832H47.7756V258.076Z" fill="#3F3D56"/>
<path d="M183.411 258.076H177.817V361.832H183.411V258.076Z" fill="#3F3D56"/>
<path d="M147.754 214.078H110.699V248.883H147.754V214.078Z" fill="#044F94"/>
<path d="M89.3403 251.084L104.406 242.085L110.531 245.555L89.3403 268.426V251.084Z" fill="#FFB6B6"/>
<path d="M68.7379 216.252C68.7379 216.252 58.731 218.464 63.4401 231.18C68.1492 243.896 83.4539 270.435 88.1631 268.776C92.8722 267.118 93.4608 250.531 93.4608 250.531C93.4608 250.531 92.8722 251.084 90.5176 248.872C88.1631 246.661 88.1631 247.671 88.1631 245.231C88.1631 242.791 86.2372 240.982 86.2372 240.982L84.0426 236.709C84.0426 236.709 84.0426 216.805 75.2129 215.699C66.3833 214.593 68.7379 216.252 68.7379 216.252Z" fill="#E6E6E6"/>
<path d="M115.491 244.961C119.398 241.29 120.61 236.477 118.196 234.209C115.782 231.942 110.658 233.08 106.75 236.751C102.842 240.421 101.63 245.235 104.044 247.502C106.458 249.769 111.583 248.631 115.491 244.961Z" fill="#FFB6B6"/>
<path d="M194.597 254.136H25.4028V265.956H194.597V254.136Z" fill="#3F3D56"/>
<path d="M366.497 159.574H341.509C339.528 159.574 337.923 161.082 337.923 162.943V172.622C337.923 174.483 339.528 175.991 341.509 175.991H366.497C368.478 175.991 370.084 174.483 370.084 172.622V162.943C370.084 161.082 368.478 159.574 366.497 159.574Z" fill="#3F3D56"/>
<path d="M418.933 169.253H393.945C391.965 169.253 390.359 170.762 390.359 172.622V172.622C390.359 174.483 391.965 175.991 393.945 175.991H418.933C420.914 175.991 422.52 174.483 422.52 172.622C422.52 170.762 420.914 169.253 418.933 169.253Z" fill="#044F94"/>
</g>
<defs>
<clipPath id="clip0_5_168">
<rect width="595" height="366" fill="white"/>
</clipPath>
</defs>
</svg>
