<svg width="556" height="550" viewBox="0 0 556 550" fill="none" xmlns="http://www.w3.org/2000/svg">
<g clip-path="url(#clip0_2_37)">
<path d="M556 275C556.097 339.915 532.884 402.753 490.502 452.313C488.963 454.121 487.395 455.9 485.798 457.67C467.006 478.576 445.117 496.54 420.877 510.948C415.317 514.25 409.635 517.362 403.831 520.283C403.244 520.578 402.648 520.873 402.061 521.158C401.359 521.51 400.647 521.853 399.935 522.196C385.249 529.306 369.951 535.108 354.224 539.533C352.589 539.99 350.95 540.434 349.308 540.865C328.62 546.28 307.367 549.31 285.974 549.895C284.859 549.924 283.762 549.943 282.704 549.962C282.329 549.971 281.963 549.981 281.598 549.981C280.395 549.99 279.202 550 278 550C255.456 550.016 232.994 547.323 211.107 541.978C208.914 541.445 206.73 540.884 204.556 540.294C193.105 537.202 181.868 533.378 170.917 528.847C165.145 526.468 159.476 523.902 153.91 521.149C152.65 520.521 151.39 519.893 150.149 519.246C149.62 518.989 149.1 518.713 148.581 518.446C118.913 502.956 92.3078 482.308 70.0387 457.49C68.4996 455.786 66.9893 454.055 65.4983 452.313C40.9619 423.536 22.6593 390.081 11.7242 354.022C0.789005 317.963 -2.54589 280.067 1.92604 242.682C6.39796 205.296 18.5815 169.216 37.722 136.678C56.8626 104.139 82.5525 75.8339 113.201 53.5156C114.778 52.3642 116.366 51.2223 117.972 50.109C118.289 49.8901 118.607 49.6713 118.924 49.4524C147.151 29.8941 178.832 15.7413 212.328 7.72663C214.233 7.26037 216.138 6.82266 218.062 6.41349C254.343 -1.43715 291.839 -2.08726 328.377 4.50085C330.291 4.85293 332.205 5.21452 334.11 5.60466C367.307 12.3403 398.968 25.0585 427.514 43.1246C428.149 43.5242 428.784 43.9239 429.419 44.3426C430.698 45.1609 431.977 45.9983 433.238 46.8451C471.052 71.9931 502.03 105.959 523.439 145.748C544.848 185.537 556.03 229.926 556 275Z" fill="#F2F2F2"/>
<path d="M207.779 417.267L118.924 425.07L117.972 425.156V50.109C118.289 49.8901 118.607 49.6713 118.924 49.4524C137.442 36.6394 157.474 26.1133 178.574 18.1081L183.114 80.0545L183.528 85.7258L188.02 147.158L189.406 166.056L207.615 415.079L207.779 417.267Z" fill="#CCCCCC"/>
<path d="M427.514 43.1246C428.149 43.5242 428.784 43.9239 429.419 44.3426V425.156L427.514 424.984L339.622 417.267L339.785 415.079L357.995 166.056L359.38 147.158L363.872 85.7258L364.286 80.0545L369.047 15.0917C389.581 22.1326 409.205 31.5417 427.514 43.1246Z" fill="#CCCCCC"/>
<path d="M427.514 43.1246V430.351C427.514 437.783 422.339 443.825 415.971 443.825H130.468C125.196 443.825 120.723 439.676 119.367 434.015C119.071 432.816 118.922 431.586 118.924 430.351V49.4524C118.607 49.6713 118.289 49.8902 117.972 50.109C116.366 51.2223 114.778 52.3642 113.201 53.5156V430.351C113.116 435.996 115.247 441.454 119.146 445.576C121.19 447.695 123.776 449.227 126.629 450.01C127.88 450.347 129.171 450.517 130.468 450.515H415.971C417.27 450.516 418.564 450.346 419.818 450.01C427.495 447.965 433.238 439.933 433.238 430.351V46.8451C431.977 45.9983 430.698 45.1609 429.419 44.3426C428.784 43.9239 428.149 43.5242 427.514 43.1246Z" fill="#CCCCCC"/>
<path d="M430.378 80.0583H116.063V85.7286H430.378V80.0583Z" fill="#CCCCCC"/>
<path d="M212.328 7.72665C214.233 7.26039 216.138 6.82268 218.062 6.41351V160.385H212.328V7.72665Z" fill="#CCCCCC"/>
<path d="M328.377 4.50085C330.291 4.85293 332.205 5.21453 334.11 5.60466V160.385H328.377V4.50085Z" fill="#CCCCCC"/>
<path d="M466.203 415.079H89.7873C82.9449 415.079 76.3828 417.767 71.5445 422.554C66.7062 427.34 63.9881 433.831 63.9881 440.6C63.9881 447.368 66.7062 453.859 71.5445 458.645C76.3828 463.431 82.9449 466.12 89.7873 466.12H466.203C469.867 466.121 473.489 465.348 476.826 463.853C480.164 462.358 483.141 460.176 485.557 457.452C486.651 456.22 487.624 454.888 488.462 453.474C489.111 452.39 489.674 451.257 490.146 450.087C491.717 446.215 492.305 442.021 491.856 437.872C491.408 433.724 489.937 429.748 487.574 426.292C485.211 422.836 482.027 420.007 478.301 418.052C474.575 416.097 470.421 415.076 466.203 415.079Z" fill="#CCCCCC"/>
<path d="M430.378 147.157H117.973V166.058H430.378V147.157Z" fill="#CCCCCC"/>
<path d="M271.31 141.487H277.042C278.422 141.487 279.788 141.756 281.063 142.278C282.338 142.801 283.497 143.566 284.473 144.532C285.449 145.497 286.223 146.643 286.751 147.904C287.279 149.166 287.551 150.517 287.551 151.883H260.801C260.801 149.125 261.908 146.481 263.879 144.532C265.849 142.582 268.523 141.487 271.31 141.487Z" fill="#CCCCCC"/>
<path d="M490.502 452.313C482.145 462.108 473.106 471.313 463.452 479.861H92.548C82.8935 471.313 73.8549 462.108 65.4983 452.313H490.502Z" fill="#3F3D56"/>
<path d="M309.051 356.901H246.602C246.266 356.897 245.931 356.948 245.612 357.053C244.934 357.26 244.341 357.677 243.92 358.242C243.499 358.807 243.273 359.491 243.274 360.193V457.785H312.389V360.193C312.389 359.76 312.302 359.331 312.134 358.931C311.966 358.531 311.72 358.168 311.41 357.862C311.1 357.557 310.732 357.314 310.327 357.149C309.923 356.984 309.489 356.9 309.051 356.901ZM285.417 405.049C285.419 406.632 284.891 408.171 283.916 409.427C282.985 410.645 281.692 411.543 280.218 411.995C278.743 412.447 277.163 412.431 275.699 411.947C274.235 411.464 272.961 410.538 272.057 409.301C271.153 408.063 270.665 406.576 270.66 405.049V393.726C270.678 391.802 271.464 389.963 272.845 388.609C274.227 387.254 276.093 386.495 278.038 386.495C279.983 386.495 281.85 387.254 283.232 388.609C284.613 389.963 285.399 391.802 285.417 393.726V405.049Z" fill="#2F2E41"/>
<path d="M243.062 454.663V464.074C243.062 464.562 243.258 465.031 243.605 465.376C243.953 465.722 244.426 465.918 244.919 465.92H310.744C311.237 465.916 311.708 465.72 312.056 465.375C312.404 465.029 312.599 464.562 312.601 464.074V454.663H243.062Z" fill="#3F3D56"/>
<path d="M412.46 204.604H145.522C143.228 204.607 141.029 205.509 139.407 207.112C137.784 208.715 136.87 210.89 136.865 213.158V391.347C136.866 393.618 137.779 395.795 139.402 397.401C141.025 399.006 143.226 399.909 145.522 399.911H412.46C414.755 399.909 416.956 399.006 418.579 397.401C420.203 395.795 421.115 393.618 421.117 391.347V213.158C421.112 210.89 420.197 208.715 418.575 207.112C416.952 205.509 414.753 204.607 412.46 204.604Z" fill="#3F3D56"/>
<path d="M410.228 210.789H147.744C146.516 210.792 145.339 211.276 144.472 212.136C143.604 212.996 143.117 214.161 143.117 215.375V389.149C143.119 390.362 143.607 391.525 144.475 392.383C145.342 393.241 146.518 393.724 147.744 393.726H410.228C411.454 393.724 412.63 393.241 413.497 392.383C414.365 391.525 414.853 390.362 414.855 389.149V215.375C414.855 214.161 414.368 212.996 413.5 212.136C412.633 211.276 411.456 210.792 410.228 210.789Z" fill="#044F94"/>
<path d="M361.919 465.768L359.495 454.378C359.395 453.914 359.179 453.481 358.866 453.121C358.554 452.76 358.155 452.482 357.706 452.313C357.381 452.187 357.035 452.123 356.686 452.123H205.364C205.015 452.123 204.669 452.187 204.344 452.313C203.896 452.482 203.497 452.76 203.184 453.121C202.872 453.481 202.656 453.914 202.555 454.378L200.131 465.768C200.043 466.182 200.05 466.609 200.151 467.02C200.251 467.43 200.443 467.814 200.712 468.142C200.981 468.47 201.32 468.735 201.706 468.917C202.091 469.099 202.513 469.193 202.94 469.194H359.101C359.529 469.196 359.953 469.102 360.339 468.919C360.726 468.736 361.065 468.469 361.333 468.138C361.602 467.811 361.795 467.428 361.896 467.018C361.998 466.609 362.006 466.181 361.919 465.768Z" fill="#2F2E41"/>
<path d="M210.813 454.174H206.943C206.683 454.174 206.473 454.382 206.473 454.639V456.564C206.473 456.821 206.683 457.029 206.943 457.029H210.813C211.073 457.029 211.283 456.821 211.283 456.564V454.639C211.283 454.382 211.073 454.174 210.813 454.174Z" fill="#3F3D56"/>
<path d="M220.433 454.174H216.562C216.303 454.174 216.093 454.382 216.093 454.639V456.564C216.093 456.821 216.303 457.029 216.562 457.029H220.433C220.692 457.029 220.902 456.821 220.902 456.564V454.639C220.902 454.382 220.692 454.174 220.433 454.174Z" fill="#3F3D56"/>
<path d="M230.052 454.174H226.182C225.922 454.174 225.712 454.382 225.712 454.639V456.564C225.712 456.821 225.922 457.029 226.182 457.029H230.052C230.311 457.029 230.522 456.821 230.522 456.564V454.639C230.522 454.382 230.311 454.174 230.052 454.174Z" fill="#3F3D56"/>
<path d="M239.671 454.174H235.801C235.542 454.174 235.331 454.382 235.331 454.639V456.564C235.331 456.821 235.542 457.029 235.801 457.029H239.671C239.931 457.029 240.141 456.821 240.141 456.564V454.639C240.141 454.382 239.931 454.174 239.671 454.174Z" fill="#3F3D56"/>
<path d="M249.291 454.174H245.42C245.161 454.174 244.951 454.382 244.951 454.639V456.564C244.951 456.821 245.161 457.029 245.42 457.029H249.291C249.55 457.029 249.76 456.821 249.76 456.564V454.639C249.76 454.382 249.55 454.174 249.291 454.174Z" fill="#3F3D56"/>
<path d="M258.91 454.174H255.04C254.78 454.174 254.57 454.382 254.57 454.639V456.564C254.57 456.821 254.78 457.029 255.04 457.029H258.91C259.17 457.029 259.38 456.821 259.38 456.564V454.639C259.38 454.382 259.17 454.174 258.91 454.174Z" fill="#3F3D56"/>
<path d="M268.53 454.174H264.659C264.4 454.174 264.189 454.382 264.189 454.639V456.564C264.189 456.821 264.4 457.029 264.659 457.029H268.53C268.789 457.029 268.999 456.821 268.999 456.564V454.639C268.999 454.382 268.789 454.174 268.53 454.174Z" fill="#3F3D56"/>
<path d="M278.149 454.174H274.278C274.019 454.174 273.809 454.382 273.809 454.639V456.564C273.809 456.821 274.019 457.029 274.278 457.029H278.149C278.408 457.029 278.619 456.821 278.619 456.564V454.639C278.619 454.382 278.408 454.174 278.149 454.174Z" fill="#3F3D56"/>
<path d="M287.768 454.174H283.898C283.638 454.174 283.428 454.382 283.428 454.639V456.564C283.428 456.821 283.638 457.029 283.898 457.029H287.768C288.028 457.029 288.238 456.821 288.238 456.564V454.639C288.238 454.382 288.028 454.174 287.768 454.174Z" fill="#3F3D56"/>
<path d="M297.388 454.174H293.517C293.258 454.174 293.048 454.382 293.048 454.639V456.564C293.048 456.821 293.258 457.029 293.517 457.029H297.388C297.647 457.029 297.857 456.821 297.857 456.564V454.639C297.857 454.382 297.647 454.174 297.388 454.174Z" fill="#3F3D56"/>
<path d="M307.007 454.174H303.137C302.877 454.174 302.667 454.382 302.667 454.639V456.564C302.667 456.821 302.877 457.029 303.137 457.029H307.007C307.266 457.029 307.477 456.821 307.477 456.564V454.639C307.477 454.382 307.266 454.174 307.007 454.174Z" fill="#3F3D56"/>
<path d="M316.626 454.174H312.756C312.497 454.174 312.286 454.382 312.286 454.639V456.564C312.286 456.821 312.497 457.029 312.756 457.029H316.626C316.886 457.029 317.096 456.821 317.096 456.564V454.639C317.096 454.382 316.886 454.174 316.626 454.174Z" fill="#3F3D56"/>
<path d="M326.246 454.174H322.375C322.116 454.174 321.906 454.382 321.906 454.639V456.564C321.906 456.821 322.116 457.029 322.375 457.029H326.246C326.505 457.029 326.715 456.821 326.715 456.564V454.639C326.715 454.382 326.505 454.174 326.246 454.174Z" fill="#3F3D56"/>
<path d="M335.865 454.174H331.995C331.735 454.174 331.525 454.382 331.525 454.639V456.564C331.525 456.821 331.735 457.029 331.995 457.029H335.865C336.125 457.029 336.335 456.821 336.335 456.564V454.639C336.335 454.382 336.125 454.174 335.865 454.174Z" fill="#3F3D56"/>
<path d="M345.485 454.174H341.614C341.355 454.174 341.144 454.382 341.144 454.639V456.564C341.144 456.821 341.355 457.029 341.614 457.029H345.485C345.744 457.029 345.954 456.821 345.954 456.564V454.639C345.954 454.382 345.744 454.174 345.485 454.174Z" fill="#3F3D56"/>
<path d="M355.104 454.174H351.233C350.974 454.174 350.764 454.382 350.764 454.639V456.564C350.764 456.821 350.974 457.029 351.233 457.029H355.104C355.363 457.029 355.574 456.821 355.574 456.564V454.639C355.574 454.382 355.363 454.174 355.104 454.174Z" fill="#3F3D56"/>
<path d="M210.7 458.932H206.829C206.57 458.932 206.36 459.14 206.36 459.397V461.322C206.36 461.579 206.57 461.787 206.829 461.787H210.7C210.959 461.787 211.169 461.579 211.169 461.322V459.397C211.169 459.14 210.959 458.932 210.7 458.932Z" fill="#3F3D56"/>
<path d="M220.319 458.932H216.449C216.189 458.932 215.979 459.14 215.979 459.397V461.322C215.979 461.579 216.189 461.787 216.449 461.787H220.319C220.578 461.787 220.789 461.579 220.789 461.322V459.397C220.789 459.14 220.578 458.932 220.319 458.932Z" fill="#3F3D56"/>
<path d="M229.938 458.932H226.068C225.809 458.932 225.598 459.14 225.598 459.397V461.322C225.598 461.579 225.809 461.787 226.068 461.787H229.938C230.198 461.787 230.408 461.579 230.408 461.322V459.397C230.408 459.14 230.198 458.932 229.938 458.932Z" fill="#3F3D56"/>
<path d="M239.558 458.932H235.687C235.428 458.932 235.218 459.14 235.218 459.397V461.322C235.218 461.579 235.428 461.787 235.687 461.787H239.558C239.817 461.787 240.027 461.579 240.027 461.322V459.397C240.027 459.14 239.817 458.932 239.558 458.932Z" fill="#3F3D56"/>
<path d="M249.177 458.932H245.307C245.047 458.932 244.837 459.14 244.837 459.397V461.322C244.837 461.579 245.047 461.787 245.307 461.787H249.177C249.436 461.787 249.647 461.579 249.647 461.322V459.397C249.647 459.14 249.436 458.932 249.177 458.932Z" fill="#3F3D56"/>
<path d="M258.797 458.932H254.926C254.667 458.932 254.456 459.14 254.456 459.397V461.322C254.456 461.579 254.667 461.787 254.926 461.787H258.797C259.056 461.787 259.266 461.579 259.266 461.322V459.397C259.266 459.14 259.056 458.932 258.797 458.932Z" fill="#3F3D56"/>
<path d="M268.416 458.932H264.545C264.286 458.932 264.076 459.14 264.076 459.397V461.322C264.076 461.579 264.286 461.787 264.545 461.787H268.416C268.675 461.787 268.885 461.579 268.885 461.322V459.397C268.885 459.14 268.675 458.932 268.416 458.932Z" fill="#3F3D56"/>
<path d="M278.035 458.932H274.165C273.905 458.932 273.695 459.14 273.695 459.397V461.322C273.695 461.579 273.905 461.787 274.165 461.787H278.035C278.295 461.787 278.505 461.579 278.505 461.322V459.397C278.505 459.14 278.295 458.932 278.035 458.932Z" fill="#3F3D56"/>
<path d="M287.655 458.932H283.784C283.525 458.932 283.315 459.14 283.315 459.397V461.322C283.315 461.579 283.525 461.787 283.784 461.787H287.655C287.914 461.787 288.124 461.579 288.124 461.322V459.397C288.124 459.14 287.914 458.932 287.655 458.932Z" fill="#3F3D56"/>
<path d="M297.274 458.932H293.404C293.144 458.932 292.934 459.14 292.934 459.397V461.322C292.934 461.579 293.144 461.787 293.404 461.787H297.274C297.533 461.787 297.744 461.579 297.744 461.322V459.397C297.744 459.14 297.533 458.932 297.274 458.932Z" fill="#3F3D56"/>
<path d="M306.893 458.932H303.023C302.764 458.932 302.553 459.14 302.553 459.397V461.322C302.553 461.579 302.764 461.787 303.023 461.787H306.893C307.153 461.787 307.363 461.579 307.363 461.322V459.397C307.363 459.14 307.153 458.932 306.893 458.932Z" fill="#3F3D56"/>
<path d="M316.513 458.932H312.642C312.383 458.932 312.173 459.14 312.173 459.397V461.322C312.173 461.579 312.383 461.787 312.642 461.787H316.513C316.772 461.787 316.982 461.579 316.982 461.322V459.397C316.982 459.14 316.772 458.932 316.513 458.932Z" fill="#3F3D56"/>
<path d="M326.132 458.932H322.262C322.002 458.932 321.792 459.14 321.792 459.397V461.322C321.792 461.579 322.002 461.787 322.262 461.787H326.132C326.391 461.787 326.602 461.579 326.602 461.322V459.397C326.602 459.14 326.391 458.932 326.132 458.932Z" fill="#3F3D56"/>
<path d="M335.752 458.932H331.881C331.622 458.932 331.411 459.14 331.411 459.397V461.322C331.411 461.579 331.622 461.787 331.881 461.787H335.752C336.011 461.787 336.221 461.579 336.221 461.322V459.397C336.221 459.14 336.011 458.932 335.752 458.932Z" fill="#3F3D56"/>
<path d="M345.371 458.932H341.5C341.241 458.932 341.031 459.14 341.031 459.397V461.322C341.031 461.579 341.241 461.787 341.5 461.787H345.371C345.63 461.787 345.841 461.579 345.841 461.322V459.397C345.841 459.14 345.63 458.932 345.371 458.932Z" fill="#3F3D56"/>
<path d="M354.99 458.932H351.12C350.86 458.932 350.65 459.14 350.65 459.397V461.322C350.65 461.579 350.86 461.787 351.12 461.787H354.99C355.25 461.787 355.46 461.579 355.46 461.322V459.397C355.46 459.14 355.25 458.932 354.99 458.932Z" fill="#3F3D56"/>
<path d="M290.54 464.641H253.002C252.743 464.641 252.533 464.849 252.533 465.106V467.031C252.533 467.288 252.743 467.496 253.002 467.496H290.54C290.8 467.496 291.01 467.288 291.01 467.031V465.106C291.01 464.849 290.8 464.641 290.54 464.641Z" fill="#3F3D56"/>
<path d="M397.038 234.727H151.433C151.178 234.721 150.935 234.617 150.756 234.437C150.577 234.256 150.477 234.013 150.477 233.761C150.477 233.508 150.577 233.266 150.756 233.085C150.935 232.904 151.178 232.8 151.433 232.795H397.038C397.293 232.8 397.536 232.904 397.715 233.085C397.893 233.266 397.993 233.508 397.993 233.761C397.993 234.013 397.893 234.256 397.715 234.437C397.536 234.617 397.293 234.721 397.038 234.727Z" fill="#3F3D56"/>
<path d="M168.151 227.862C171.313 227.862 173.875 225.27 173.875 222.073C173.875 218.876 171.313 216.285 168.151 216.285C164.99 216.285 162.428 218.876 162.428 222.073C162.428 225.27 164.99 227.862 168.151 227.862Z" fill="#3F3D56"/>
<path d="M187.925 227.862C191.086 227.862 193.649 225.27 193.649 222.073C193.649 218.876 191.086 216.285 187.925 216.285C184.764 216.285 182.201 218.876 182.201 222.073C182.201 225.27 184.764 227.862 187.925 227.862Z" fill="#3F3D56"/>
<path d="M207.699 227.862C210.86 227.862 213.423 225.27 213.423 222.073C213.423 218.876 210.86 216.285 207.699 216.285C204.537 216.285 201.975 218.876 201.975 222.073C201.975 225.27 204.537 227.862 207.699 227.862Z" fill="#3F3D56"/>
<path d="M385.131 217.716H371.087C370.809 217.723 370.545 217.836 370.351 218.033C370.157 218.229 370.048 218.493 370.048 218.768C370.048 219.042 370.157 219.306 370.351 219.503C370.545 219.699 370.809 219.813 371.087 219.819H385.131C385.41 219.815 385.677 219.703 385.873 219.506C386.069 219.309 386.179 219.044 386.179 218.768C386.179 218.491 386.069 218.226 385.873 218.029C385.677 217.833 385.41 217.72 385.131 217.716Z" fill="#3F3D56"/>
<path d="M385.131 221.665H371.087C370.809 221.671 370.544 221.785 370.35 221.981C370.156 222.178 370.047 222.442 370.047 222.717C370.047 222.992 370.156 223.256 370.35 223.452C370.544 223.649 370.809 223.762 371.087 223.768H385.131C385.411 223.765 385.678 223.653 385.874 223.456C386.071 223.259 386.181 222.993 386.181 222.717C386.181 222.44 386.071 222.174 385.874 221.978C385.678 221.781 385.411 221.669 385.131 221.665Z" fill="#3F3D56"/>
<path d="M385.131 225.614H371.087C370.809 225.621 370.545 225.734 370.351 225.931C370.157 226.127 370.048 226.391 370.048 226.666C370.048 226.94 370.157 227.204 370.351 227.401C370.545 227.597 370.809 227.711 371.087 227.717H385.131C385.41 227.713 385.677 227.601 385.873 227.404C386.069 227.207 386.179 226.942 386.179 226.666C386.179 226.389 386.069 226.124 385.873 225.927C385.677 225.731 385.41 225.618 385.131 225.614Z" fill="#3F3D56"/>
<path d="M172.61 257.18H167.564C166.034 257.18 164.794 258.407 164.794 259.921C164.794 261.434 166.034 262.661 167.564 262.661H172.61C174.14 262.661 175.381 261.434 175.381 259.921C175.381 258.407 174.14 257.18 172.61 257.18Z" fill="#E6E6E6"/>
<path d="M230.327 257.18H225.28C223.75 257.18 222.51 258.407 222.51 259.921C222.51 261.434 223.75 262.661 225.28 262.661H230.327C231.857 262.661 233.097 261.434 233.097 259.921C233.097 258.407 231.857 257.18 230.327 257.18Z" fill="#E6E6E6"/>
<path d="M246.68 257.18H241.633C240.103 257.18 238.863 258.407 238.863 259.921C238.863 261.434 240.103 262.661 241.633 262.661H246.68C248.21 262.661 249.45 261.434 249.45 259.921C249.45 258.407 248.21 257.18 246.68 257.18Z" fill="#E6E6E6"/>
<path d="M214.628 256.724H183.263C181.733 256.724 180.493 257.95 180.493 259.464C180.493 260.978 181.733 262.204 183.263 262.204H214.628C216.158 262.204 217.398 260.978 217.398 259.464C217.398 257.95 216.158 256.724 214.628 256.724Z" fill="#E6E6E6"/>
<path d="M291.583 256.724H260.218C258.688 256.724 257.448 257.95 257.448 259.464C257.448 260.978 258.688 262.204 260.218 262.204H291.583C293.113 262.204 294.353 260.978 294.353 259.464C294.353 257.95 293.113 256.724 291.583 256.724Z" fill="#E6E6E6"/>
<path d="M188.001 269.551H182.955C181.425 269.551 180.185 270.778 180.185 272.291C180.185 273.805 181.425 275.032 182.955 275.032H188.001C189.531 275.032 190.772 273.805 190.772 272.291C190.772 270.778 189.531 269.551 188.001 269.551Z" fill="#E6E6E6"/>
<path d="M245.718 269.551H240.671C239.141 269.551 237.901 270.778 237.901 272.291C237.901 273.805 239.141 275.032 240.671 275.032H245.718C247.248 275.032 248.488 273.805 248.488 272.291C248.488 270.778 247.248 269.551 245.718 269.551Z" fill="#E6E6E6"/>
<path d="M262.071 269.551H257.024C255.494 269.551 254.254 270.778 254.254 272.291C254.254 273.805 255.494 275.032 257.024 275.032H262.071C263.601 275.032 264.841 273.805 264.841 272.291C264.841 270.778 263.601 269.551 262.071 269.551Z" fill="#E6E6E6"/>
<path d="M230.019 269.094H198.654C197.124 269.094 195.883 270.321 195.883 271.834C195.883 273.348 197.124 274.575 198.654 274.575H230.019C231.549 274.575 232.789 273.348 232.789 271.834C232.789 270.321 231.549 269.094 230.019 269.094Z" fill="#E6E6E6"/>
<path d="M306.974 269.094H275.609C274.079 269.094 272.839 270.321 272.839 271.834C272.839 273.348 274.079 274.575 275.609 274.575H306.974C308.504 274.575 309.744 273.348 309.744 271.834C309.744 270.321 308.504 269.094 306.974 269.094Z" fill="#E6E6E6"/>
<path d="M203.392 281.921H198.346C196.816 281.921 195.576 283.148 195.576 284.661C195.576 286.175 196.816 287.402 198.346 287.402H203.392C204.922 287.402 206.163 286.175 206.163 284.661C206.163 283.148 204.922 281.921 203.392 281.921Z" fill="#E6E6E6"/>
<path d="M261.109 281.921H256.062C254.532 281.921 253.292 283.148 253.292 284.661C253.292 286.175 254.532 287.402 256.062 287.402H261.109C262.639 287.402 263.879 286.175 263.879 284.661C263.879 283.148 262.639 281.921 261.109 281.921Z" fill="#E6E6E6"/>
<path d="M277.462 281.921H272.415C270.885 281.921 269.645 283.148 269.645 284.661C269.645 286.175 270.885 287.402 272.415 287.402H277.462C278.992 287.402 280.232 286.175 280.232 284.661C280.232 283.148 278.992 281.921 277.462 281.921Z" fill="#E6E6E6"/>
<path d="M245.41 281.464H214.045C212.515 281.464 211.275 282.691 211.275 284.204C211.275 285.718 212.515 286.945 214.045 286.945H245.41C246.94 286.945 248.18 285.718 248.18 284.204C248.18 282.691 246.94 281.464 245.41 281.464Z" fill="#E6E6E6"/>
<path d="M322.365 281.464H291C289.47 281.464 288.23 282.691 288.23 284.204C288.23 285.718 289.47 286.945 291 286.945H322.365C323.895 286.945 325.135 285.718 325.135 284.204C325.135 282.691 323.895 281.464 322.365 281.464Z" fill="#E6E6E6"/>
<path d="M218.783 294.291H213.737C212.207 294.291 210.967 295.518 210.967 297.032C210.967 298.545 212.207 299.772 213.737 299.772H218.783C220.313 299.772 221.554 298.545 221.554 297.032C221.554 295.518 220.313 294.291 218.783 294.291Z" fill="#E6E6E6"/>
<path d="M276.5 294.291H271.453C269.923 294.291 268.683 295.518 268.683 297.032C268.683 298.545 269.923 299.772 271.453 299.772H276.5C278.03 299.772 279.27 298.545 279.27 297.032C279.27 295.518 278.03 294.291 276.5 294.291Z" fill="#E6E6E6"/>
<path d="M292.853 294.291H287.806C286.276 294.291 285.036 295.518 285.036 297.032C285.036 298.545 286.276 299.772 287.806 299.772H292.853C294.383 299.772 295.623 298.545 295.623 297.032C295.623 295.518 294.383 294.291 292.853 294.291Z" fill="#E6E6E6"/>
<path d="M260.801 293.834H229.436C227.906 293.834 226.666 295.061 226.666 296.575C226.666 298.088 227.906 299.315 229.436 299.315H260.801C262.331 299.315 263.571 298.088 263.571 296.575C263.571 295.061 262.331 293.834 260.801 293.834Z" fill="#E6E6E6"/>
<path d="M230.327 343.481H225.28C223.75 343.481 222.51 344.707 222.51 346.221C222.51 347.734 223.75 348.961 225.28 348.961H230.327C231.857 348.961 233.097 347.734 233.097 346.221C233.097 344.707 231.857 343.481 230.327 343.481Z" fill="#E6E6E6"/>
<path d="M246.68 343.481H241.633C240.103 343.481 238.863 344.707 238.863 346.221C238.863 347.734 240.103 348.961 241.633 348.961H246.68C248.21 348.961 249.45 347.734 249.45 346.221C249.45 344.707 248.21 343.481 246.68 343.481Z" fill="#E6E6E6"/>
<path d="M291.583 343.937H260.218C258.688 343.937 257.448 345.164 257.448 346.678C257.448 348.191 258.688 349.418 260.218 349.418H291.583C293.113 349.418 294.353 348.191 294.353 346.678C294.353 345.164 293.113 343.937 291.583 343.937Z" fill="#E6E6E6"/>
<path d="M172.61 343.481H167.564C166.034 343.481 164.794 344.707 164.794 346.221C164.794 347.734 166.034 348.961 167.564 348.961H172.61C174.14 348.961 175.381 347.734 175.381 346.221C175.381 344.707 174.14 343.481 172.61 343.481Z" fill="#E6E6E6"/>
<path d="M214.628 343.937H183.263C181.733 343.937 180.493 345.164 180.493 346.678C180.493 348.191 181.733 349.418 183.263 349.418H214.628C216.158 349.418 217.398 348.191 217.398 346.678C217.398 345.164 216.158 343.937 214.628 343.937Z" fill="#E6E6E6"/>
<path d="M188.001 331.11H182.955C181.425 331.11 180.185 332.337 180.185 333.851C180.185 335.364 181.425 336.591 182.955 336.591H188.001C189.531 336.591 190.772 335.364 190.772 333.851C190.772 332.337 189.531 331.11 188.001 331.11Z" fill="#E6E6E6"/>
<path d="M245.718 331.11H240.671C239.141 331.11 237.901 332.337 237.901 333.851C237.901 335.364 239.141 336.591 240.671 336.591H245.718C247.248 336.591 248.488 335.364 248.488 333.851C248.488 332.337 247.248 331.11 245.718 331.11Z" fill="#E6E6E6"/>
<path d="M262.071 331.11H257.024C255.494 331.11 254.254 332.337 254.254 333.851C254.254 335.364 255.494 336.591 257.024 336.591H262.071C263.601 336.591 264.841 335.364 264.841 333.851C264.841 332.337 263.601 331.11 262.071 331.11Z" fill="#E6E6E6"/>
<path d="M230.019 331.567H198.654C197.124 331.567 195.883 332.794 195.883 334.308C195.883 335.821 197.124 337.048 198.654 337.048H230.019C231.549 337.048 232.789 335.821 232.789 334.308C232.789 332.794 231.549 331.567 230.019 331.567Z" fill="#E6E6E6"/>
<path d="M203.392 318.74H198.346C196.816 318.74 195.576 319.967 195.576 321.48C195.576 322.994 196.816 324.221 198.346 324.221H203.392C204.922 324.221 206.163 322.994 206.163 321.48C206.163 319.967 204.922 318.74 203.392 318.74Z" fill="#E6E6E6"/>
<path d="M261.109 318.74H256.062C254.532 318.74 253.292 319.967 253.292 321.48C253.292 322.994 254.532 324.221 256.062 324.221H261.109C262.639 324.221 263.879 322.994 263.879 321.48C263.879 319.967 262.639 318.74 261.109 318.74Z" fill="#E6E6E6"/>
<path d="M277.462 318.74H272.415C270.885 318.74 269.645 319.967 269.645 321.48C269.645 322.994 270.885 324.221 272.415 324.221H277.462C278.992 324.221 280.232 322.994 280.232 321.48C280.232 319.967 278.992 318.74 277.462 318.74Z" fill="#E6E6E6"/>
<path d="M245.41 319.197H214.045C212.515 319.197 211.275 320.424 211.275 321.937C211.275 323.451 212.515 324.678 214.045 324.678H245.41C246.94 324.678 248.18 323.451 248.18 321.937C248.18 320.424 246.94 319.197 245.41 319.197Z" fill="#E6E6E6"/>
<path d="M218.783 306.37H213.737C212.207 306.37 210.967 307.597 210.967 309.11C210.967 310.624 212.207 311.851 213.737 311.851H218.783C220.313 311.851 221.554 310.624 221.554 309.11C221.554 307.597 220.313 306.37 218.783 306.37Z" fill="#E6E6E6"/>
<path d="M276.5 306.37H271.453C269.923 306.37 268.683 307.597 268.683 309.11C268.683 310.624 269.923 311.851 271.453 311.851H276.5C278.03 311.851 279.27 310.624 279.27 309.11C279.27 307.597 278.03 306.37 276.5 306.37Z" fill="#E6E6E6"/>
<path d="M292.853 306.37H287.806C286.276 306.37 285.036 307.597 285.036 309.11C285.036 310.624 286.276 311.851 287.806 311.851H292.853C294.383 311.851 295.623 310.624 295.623 309.11C295.623 307.597 294.383 306.37 292.853 306.37Z" fill="#E6E6E6"/>
<path d="M260.801 306.827H229.436C227.906 306.827 226.666 308.054 226.666 309.567C226.666 311.081 227.906 312.308 229.436 312.308H260.801C262.331 312.308 263.571 311.081 263.571 309.567C263.571 308.054 262.331 306.827 260.801 306.827Z" fill="#E6E6E6"/>
<path d="M399.983 522.186C399.397 522.481 398.8 522.776 398.213 523.061C383.015 530.579 370.856 534.851 354.224 539.533C352.82 524.023 351.463 496.76 350.145 479.861C349.799 475.474 349.453 471.792 349.116 469.194C349.031 467.813 348.746 466.451 348.27 465.15L348.327 469.194L348.472 479.861L349.308 540.865C328.62 546.28 307.367 549.31 285.974 549.895C284.859 549.924 283.762 549.943 282.704 549.962C282.329 549.971 281.963 549.981 281.598 549.981C280.395 549.99 279.202 550 278 550C255.456 550.017 232.994 547.323 211.107 541.978C211.578 526.63 212.05 499.672 212.502 479.861C212.598 475.988 212.684 472.382 212.781 469.194C212.963 462.381 213.156 457.471 213.339 455.824C213.177 456.116 213.051 456.426 212.963 456.747C212.072 460.851 211.465 465.009 211.145 469.194C210.809 472.382 210.472 475.988 210.135 479.861C208.346 500.443 206.48 528.428 204.556 540.294C193.105 537.202 181.868 533.378 170.917 528.847C165.145 526.468 159.476 523.902 153.91 521.149C154.968 514.298 156.074 506.618 157.209 498.654C158.094 492.478 159.008 486.131 159.941 479.861C161.384 470.174 162.866 460.677 164.366 452.313C166.56 440.095 168.81 430.275 171.042 425.765C173.158 421.483 175.275 417.258 177.324 413.214C178.035 411.796 178.747 410.397 179.44 409.036C179.603 408.713 179.767 408.399 179.93 408.085C181.402 405.221 182.826 402.48 184.182 399.911C185.346 397.713 186.452 395.638 187.501 393.726C190.04 389.082 192.195 385.381 193.792 383.04C200.468 373.023 210.406 365.565 221.957 361.906L222.246 361.83L222.448 361.915L242.12 355.939L244.996 355.064L246.929 354.474L253.74 349.345L257.443 346.557L260.916 343.94L267.707 338.83L309.754 341.39L317.94 360.888L336.274 367.52L336.592 367.377L336.871 367.263L337.159 367.339C348.708 371.002 358.646 378.459 365.325 388.473C366.229 389.815 367.326 391.585 368.566 393.726C369.625 395.543 370.779 397.618 372.029 399.911C373.809 403.175 375.752 406.857 377.811 410.844C378.263 411.72 378.725 412.614 379.186 413.518C380.042 415.193 380.911 416.902 381.793 418.647C383.842 422.691 385.958 426.916 388.075 431.208C389.912 434.928 391.768 442.579 393.596 452.313C395.106 460.401 396.607 469.936 398.059 479.861C399.964 492.726 397.934 508.131 399.656 519.969C399.762 520.721 399.878 521.453 399.983 522.186Z" fill="#3F3D56"/>
<path d="M278.592 323.267C305.599 323.267 327.493 301.61 327.493 274.894C327.493 248.178 305.599 226.52 278.592 226.52C251.584 226.52 229.69 248.178 229.69 274.894C229.69 301.61 251.584 323.267 278.592 323.267Z" fill="#A0616A"/>
<path d="M359.236 210.789C358.269 208.557 356.983 206.474 355.417 204.604C347.991 195.631 334.485 191.682 320.623 202.301C317.955 201.711 315.174 201.869 312.591 202.758C311.372 203.194 310.23 203.817 309.205 204.604C307.106 206.223 305.469 208.355 304.453 210.789C303.91 212.075 303.554 213.43 303.395 214.814C299.969 213.053 296.342 211.702 292.593 210.789C283.392 208.525 273.772 208.525 264.571 210.789C261.623 211.527 258.784 212.64 256.126 214.1C251.624 216.67 249.036 219.914 248.574 223.521C242.081 223.882 235.328 227.26 230.297 232.798C229.73 233.417 229.182 234.064 228.672 234.73C224.441 240.206 222.167 246.917 222.208 253.809V255.017H223.429C226.776 255.014 230.092 255.654 233.193 256.901C235.202 257.7 237.105 258.738 238.859 259.994C240.006 260.799 241.09 261.69 242.1 262.658C244.444 264.902 246.429 267.485 247.988 270.318C251.984 277.478 253.37 285.78 251.912 293.831C251.578 295.695 251.089 297.528 250.45 299.312C249.541 301.858 248.344 304.294 246.881 306.573C246.824 306.658 246.775 306.744 246.718 306.83C246.073 307.848 245.458 308.885 244.88 309.932C244.448 310.712 244.044 311.511 243.668 312.311C242.572 314.535 241.646 316.838 240.898 319.2C239.559 323.377 238.77 327.707 238.551 332.084C238.484 333.245 238.464 334.406 238.503 335.567C238.56 338.559 238.892 341.54 239.494 344.473C239.58 344.873 239.667 345.263 239.753 345.663L240.456 348.698L242.12 355.94L243.274 360.926L244.342 365.55L245.919 363.314C246.458 362.553 247.814 360.212 249.632 356.901C250.835 354.741 252.23 352.162 253.74 349.345C255.847 345.396 258.155 340.991 260.416 336.594C261.33 334.815 262.234 333.045 263.109 331.313C264.764 328.03 266.322 324.862 267.659 322.045C268.89 319.447 269.939 317.145 270.718 315.298C270.959 316.507 271.161 317.734 271.315 318.972C271.488 320.228 271.613 321.503 271.68 322.778C271.699 322.968 271.709 323.168 271.719 323.358L271.757 324.139L271.767 324.367L272.786 324.5C278.667 325.123 284.596 325.168 290.486 324.633H290.496C298.298 324.052 305.953 322.217 313.159 319.2C317.251 317.444 321.073 315.124 324.51 312.311C326.116 310.996 327.615 309.557 328.992 308.01C329.339 307.619 329.675 307.229 330.002 306.83C331.906 304.515 333.536 301.993 334.86 299.312C335.747 297.543 336.499 295.711 337.111 293.831C340.805 282.765 340.593 268.958 336.476 252.553C337.588 252.341 338.653 251.935 339.622 251.354C342.642 249.556 344.739 245.987 345.393 241.629L346.432 241.905C350.115 240.208 353.396 237.764 356.061 234.73C356.589 234.113 357.084 233.468 357.543 232.799C362.247 225.947 362.285 217.726 359.236 210.789Z" fill="#2F2E41"/>
<path opacity="0.2" d="M198.467 452.271L206.641 421.068L213.858 447.993L198.467 452.271Z" fill="black"/>
<path d="M415.971 431.94C413.046 471.792 416.077 489.338 399.935 522.196C385.249 529.306 369.951 535.108 354.224 539.533C352.589 539.99 350.95 540.434 349.308 540.865C328.62 546.28 307.367 549.31 285.974 549.895C284.859 549.924 283.762 549.943 282.704 549.962C282.329 549.971 281.963 549.981 281.598 549.981C280.395 549.99 279.202 550 278 550C255.456 550.016 232.994 547.323 211.107 541.978C208.914 541.445 206.73 540.884 204.556 540.294C193.105 537.202 181.868 533.378 170.917 528.847C165.145 526.468 159.476 523.902 153.91 521.149C152.65 520.521 151.39 519.893 150.149 519.246C143.771 508.15 140.145 494.657 140.068 478.443C144.483 450.505 406.217 407.847 415.971 431.94Z" fill="#2F2E41"/>
<path opacity="0.2" d="M415.963 438.765C416.113 436.298 416.28 433.749 416.474 431.096C406.72 407.002 144.987 449.66 140.571 477.598C140.583 480.16 140.694 482.645 140.88 485.072C151.573 457.498 400.223 416.954 415.963 438.765Z" fill="black"/>
<path d="M156.888 325.577C156.951 324.714 156.828 323.848 156.525 323.036C156.222 322.225 155.746 321.487 155.131 320.873C154.515 320.258 153.774 319.781 152.957 319.474C152.139 319.167 151.265 319.036 150.392 319.091C150.067 319.104 149.743 319.144 149.425 319.211L111.177 327.758C110.322 327.963 109.52 328.343 108.823 328.874C108.125 329.404 107.548 330.073 107.128 330.837C106.567 330.858 106.01 330.938 105.466 331.076C104.276 331.343 103.151 331.839 102.154 332.536C101.158 333.233 100.31 334.118 99.6591 335.139C99.0082 336.16 98.5671 337.298 98.3608 338.488C98.1546 339.678 98.1873 340.896 98.4571 342.074C98.7269 343.251 99.2285 344.365 99.9332 345.35C100.638 346.336 101.532 347.175 102.564 347.819C104.65 349.119 107.171 349.546 109.575 349.007C110.943 348.694 112.223 348.081 113.321 347.214L126.283 383.317C126.93 384.448 127.93 385.342 129.134 385.865C130.337 386.387 131.679 386.51 132.959 386.216L157.824 380.657C159.095 380.363 160.238 379.678 161.09 378.701C161.942 377.723 162.46 376.504 162.567 375.218L156.888 325.577ZM109.001 346.437C107.284 346.82 105.484 346.515 103.995 345.587C102.506 344.659 101.45 343.184 101.058 341.487C100.666 339.79 100.97 338.008 101.904 336.533C102.838 335.057 104.326 334.008 106.04 333.616C106.161 333.586 106.282 333.616 106.403 333.586C106.394 334.675 106.675 335.747 107.219 336.694L111.962 344.883C111.136 345.658 110.113 346.195 109.001 346.437Z" fill="#2F2E41"/>
<path d="M150.392 319.091C150.755 323.873 142.476 329.372 131.389 331.554C121.207 333.616 112.083 332.182 109.515 328.416C110.031 328.113 110.592 327.891 111.177 327.758L149.425 319.211C149.743 319.144 150.067 319.104 150.392 319.091Z" fill="#3F3D56"/>
<path d="M123.939 440.481L145.423 429.855L127.52 382.038L122.802 357.924C122.189 354.791 120.755 351.872 118.645 349.459C116.534 347.046 113.82 345.223 110.774 344.172C107.728 343.122 104.456 342.88 101.287 343.472C98.1167 344.064 95.1594 345.468 92.7101 347.545C89.0806 350.623 86.8017 354.974 86.3543 359.682C85.907 364.39 87.3262 369.086 90.3124 372.779L107.827 394.435L123.939 440.481Z" fill="#A0616A"/>
<path d="M145.423 421L116.778 435.168L138.516 502.547C140.077 507.385 142.876 511.742 146.64 515.196C150.405 518.65 155.007 521.083 160.002 522.259C166.161 523.71 172.626 523.183 178.461 520.754C184.297 518.325 189.198 514.12 192.455 508.75L250.099 411.012C254.184 404.277 255.445 396.229 253.613 388.587C251.78 380.945 246.999 374.315 240.292 370.112C236.684 367.852 232.636 366.369 228.41 365.759C224.185 365.148 219.877 365.425 215.767 366.571C211.656 367.717 207.836 369.706 204.555 372.409C201.273 375.112 198.603 378.468 196.72 382.259L161.536 456.42L145.423 421Z" fill="#3F3D56"/>
<path d="M136.563 360.109C136.51 360.109 136.457 360.1 136.407 360.083L130.153 357.953C130.077 357.927 130.009 357.883 129.955 357.825C129.901 357.767 129.862 357.697 129.843 357.62C129.823 357.543 129.823 357.463 129.843 357.387C129.862 357.31 129.901 357.24 129.955 357.181L134.606 352.172C134.649 352.126 134.7 352.088 134.758 352.061C134.815 352.035 134.877 352.02 134.94 352.017C135.004 352.014 135.067 352.024 135.126 352.045C135.186 352.066 135.24 352.099 135.287 352.141C135.334 352.184 135.371 352.235 135.398 352.292C135.425 352.348 135.44 352.41 135.442 352.473C135.445 352.535 135.435 352.598 135.413 352.656C135.391 352.715 135.358 352.769 135.315 352.815L131.16 357.289L136.72 359.183C136.827 359.22 136.918 359.293 136.976 359.39C137.035 359.486 137.056 359.6 137.038 359.711C137.019 359.822 136.961 359.923 136.874 359.996C136.787 360.069 136.677 360.109 136.563 360.109Z" fill="#044F94"/>
<path d="M145.136 358.373C145.04 358.373 144.946 358.344 144.867 358.292C144.787 358.239 144.726 358.163 144.69 358.075C144.654 357.988 144.645 357.891 144.665 357.798C144.685 357.706 144.732 357.621 144.801 357.555L149.028 353.512L143.35 351.197C143.291 351.173 143.238 351.138 143.193 351.094C143.149 351.05 143.113 350.998 143.089 350.94C143.064 350.883 143.052 350.821 143.052 350.758C143.051 350.696 143.064 350.634 143.088 350.576C143.112 350.518 143.147 350.466 143.192 350.421C143.237 350.377 143.29 350.342 143.348 350.318C143.406 350.294 143.469 350.282 143.532 350.282C143.595 350.282 143.658 350.294 143.716 350.318L150.074 352.91C150.148 352.94 150.213 352.987 150.264 353.049C150.314 353.11 150.348 353.182 150.363 353.26C150.378 353.338 150.374 353.418 150.35 353.493C150.325 353.568 150.283 353.636 150.225 353.691L145.47 358.239C145.38 358.325 145.26 358.373 145.136 358.373Z" fill="#044F94"/>
<path d="M137.876 363.019C137.828 363.019 137.78 363.012 137.735 362.998C137.674 362.979 137.618 362.949 137.569 362.91C137.521 362.87 137.48 362.821 137.451 362.766C137.421 362.71 137.403 362.65 137.397 362.588C137.391 362.525 137.398 362.463 137.416 362.403L141.855 348.13C141.893 348.009 141.978 347.909 142.09 347.85C142.203 347.792 142.335 347.779 142.456 347.817C142.578 347.854 142.68 347.937 142.74 348.048C142.799 348.16 142.812 348.29 142.775 348.41L138.336 362.684C138.305 362.781 138.244 362.866 138.162 362.926C138.079 362.986 137.979 363.019 137.876 363.019Z" fill="#044F94"/>
</g>
<defs>
<clipPath id="clip0_2_37">
<rect width="556" height="550" fill="white"/>
</clipPath>
</defs>
</svg>
